<svg viewBox="0 0 111 30" xmlns="http://www.w3.org/2000/svg">
    <path fill="#e50914" d="M105.06 14.28L111 30H109.25C107.5 29.75 105.72 29.44 104.06 29.16L100.72 20.47L97.25 28.44C95.59 28.06 93.91 27.84 92.25 27.69L98.94 14.09L94.47 0H99.53L102.59 7.87L105.87 0H111L105.06 14.28ZM90.47 0H85.87V27.25C87.37 27.34 88.94 27.41 90.47 27.59V0ZM81.91 26.94C77.72 26.66 73.53 26.41 69.25 26.31V0H73.94V21.87C76.62 21.94 79.31 22.16 81.91 22.28V26.94ZM64.25 10.66V15.34L57.84 15.34V26L53.22 26V0H66.34V4.69L57.84 4.69V10.66L64.25 10.66ZM45.34 4.69V26.25C43.78 26.25 42.19 26.25 40.66 26.31V4.69H35.81V0H50.22V4.69L45.34 4.69ZM30.75 15.59C28.69 15.59 26.25 15.59 24.5 15.69V22.66C27.25 22.47 30 22.25 32.78 22.16V26.66L19.81 27.69V0H32.78V4.69L24.5 4.69V11C26.31 11 29.09 10.91 30.75 10.91V15.59ZM4.78 12.97V29.34C3.09 29.53 1.59 29.75 0 30V0H4.47L10.56 17.03V0H15.25V28.06C13.59 28.34 11.91 28.44 10.12 28.69L4.78 12.97Z"/>
</svg>
